<svg xmlns="http://www.w3.org/2000/svg" width="56" height="56" viewBox="0 0 56 56"><g transform="translate(0 -996.362)"><circle cx="28" cy="1024.362" r="28" fill="#ef4c45" fill-rule="evenodd"/><path fill="#df2209" d="M 27.587891 55.978516 A 27.999989 27.999989 0 0 0 28 56 A 27.999989 27.999989 0 0 0 29.980469 55.929688 A 27.999989 27.999989 0 0 0 32.759766 55.591797 A 27.999989 27.999989 0 0 0 35.490234 54.980469 A 27.999989 27.999989 0 0 0 38.146484 54.097656 A 27.999989 27.999989 0 0 0 40.701172 52.953125 A 27.999989 27.999989 0 0 0 43.128906 51.560547 A 27.999989 27.999989 0 0 0 45.404297 49.933594 A 27.999989 27.999989 0 0 0 47.507812 48.085938 A 27.999989 27.999989 0 0 0 49.416016 46.039062 A 27.999989 27.999989 0 0 0 51.109375 43.810547 A 27.999989 27.999989 0 0 0 52.572266 41.423828 A 27.999989 27.999989 0 0 0 53.789062 38.904297 A 27.999989 27.999989 0 0 0 54.75 36.275391 A 27.999989 27.999989 0 0 0 55.441406 33.5625 A 27.999989 27.999989 0 0 0 55.859375 30.794922 A 27.999989 27.999989 0 0 0 56 28 A 27.999989 27.999989 0 0 0 55.986328 27.595703 L 43.707031 15.316406 L 43.677734 15.287109 C 43.612528 15.22191 43.532632 15.177483 43.453125 15.132812 C 43.428117 15.118734 43.409006 15.095781 43.382812 15.083984 C 43.264784 15.030935 43.135891 15 43 15 L 13 15 C 12.448 15 12 15.485984 12 16.083984 L 12 39.916016 C 12 40.069345 12.031126 40.213536 12.083984 40.345703 C 12.103594 40.394902 12.138221 40.431469 12.164062 40.476562 C 12.208811 40.554696 12.251456 40.634073 12.3125 40.697266 C 12.316718 40.701633 12.317978 40.708603 12.322266 40.712891 L 27.587891 55.978516 z " transform="translate(0 996.362)"/><path fill="#fff" d="M 1,3 C 0.448,3 0,3.4859844 0,4.0839844 L 0,27.916016 C 0,28.515016 0.447,29 1,29 l 30,0 c 0.553,0 1,-0.484984 1,-1.083984 L 32,4.0839844 C 32,3.4849844 31.553,3 31,3 L 1,3 Z m 22,1 c 0.553,0 1,0.447 1,1 0,0.553 -0.447,1 -1,1 -0.553,0 -1,-0.447 -1,-1 0,-0.553 0.447,-1 1,-1 z m 3,0 c 0.553,0 1,0.447 1,1 0,0.553 -0.447,1 -1,1 -0.553,0 -1,-0.447 -1,-1 0,-0.553 0.447,-1 1,-1 z m 3,0 c 0.553,0 1,0.447 1,1 0,0.553 -0.447,1 -1,1 C 28.447,6 28,5.553 28,5 28,4.447 28.447,4 29,4 Z M 1.9375,7 30.0625,7 c 0.518,0 0.939453,0.392 0.939453,0.875 l 0,19.25 C 31.001953,27.608 30.5805,28 30.0625,28 L 1.9375,28 C 1.4195,28 1,27.608 1,27.125 L 1,7.875 C 1,7.392 1.4195,7 1.9375,7 Z m 0.09375,1 0,9 8,0 0,-9 -8,0 z m 10,0 0,9 8,0 0,-9 -8,0 z m 10,0 0,9 8,0 0,-9 -8,0 z m -20,10 0,9 8,0 0,-9 -8,0 z m 10,0 0,9 8,0 0,-9 -8,0 z m 10,0 0,9 8,0 0,-9 -8,0 z" transform="translate(12 1008.362)"/></g></svg>