<svg xmlns="http://www.w3.org/2000/svg" width="48" height="48" viewBox="0 0 48 48"><g transform="translate(0 -1004.362)"><circle cx="657.054" cy="437.094" r="15.268" fill="#9257a2" fill-rule="evenodd" transform="matrix(1.57193 0 0 1.57193 -1008.842 341.28)"/><path fill="#6c4676" style="line-height:normal;-inkscape-font-specification:Sans;text-indent:0;text-align:start;text-decoration-line:none;text-transform:none;block-progression:tb;marker:none" d="M 24.166016 47.992188 A 24 24 0 0 0 26.396484 47.880859 A 24 24 0 0 0 28.767578 47.521484 A 24 24 0 0 0 31.091797 46.927734 A 24 24 0 0 0 33.345703 46.105469 A 24 24 0 0 0 35.505859 45.0625 A 24 24 0 0 0 37.550781 43.808594 A 24 24 0 0 0 39.460938 42.355469 A 24 24 0 0 0 41.216797 40.720703 A 24 24 0 0 0 42.800781 38.917969 A 24 24 0 0 0 44.195312 36.966797 A 24 24 0 0 0 45.388672 34.886719 A 24 24 0 0 0 46.369141 32.697266 A 24 24 0 0 0 47.125 30.419922 A 24 24 0 0 0 47.650391 28.080078 A 24 24 0 0 0 47.939453 25.697266 A 24 24 0 0 0 47.939453 25.6875 L 34.175781 11.923828 L 34.171875 11.919922 C 34.052326 11.800422 33.918006 11.706022 33.787109 11.607422 C 33.546876 11.682736 33.374158 11.724397 33.216797 11.751953 C 33.149295 11.763981 33.081917 11.776752 33.025391 11.779297 C 33.003116 11.780292 32.979825 11.78178 32.958984 11.78125 C 32.934437 11.780681 32.915369 11.772251 32.892578 11.769531 L 32.033203 10.910156 C 31.902548 10.892245 31.771953 10.873232 31.640625 10.873047 L 31.638672 10.873047 L 31.638672 10.871094 C 31.451905 10.871094 31.266944 10.897828 31.082031 10.923828 C 30.577668 11.898128 30.46094 11.848159 29.458984 11.630859 C 29.337875 11.723859 29.214586 11.810875 29.103516 11.921875 C 28.964692 12.061375 28.849567 12.214941 28.738281 12.369141 C 29.057978 13.360441 28.916625 13.399287 28.101562 13.929688 C 28.049302 14.281186 28.049304 14.636781 28.101562 14.988281 L 28.847656 15.734375 C 28.852592 15.790739 28.86058 15.846271 28.853516 15.914062 C 28.837318 16.082617 28.799214 16.269166 28.738281 16.550781 C 28.849531 16.704481 28.964752 16.857294 29.103516 16.996094 L 29.105469 16.998047 L 31.587891 19.480469 C 30.981052 19.666064 30.516041 20.192275 30.390625 20.849609 C 30.378667 20.912284 30.378746 20.97823 30.373047 21.042969 L 27.291016 17.960938 L 27.285156 17.953125 C 27.279774 17.947356 27.273013 17.943214 27.267578 17.9375 L 27.224609 17.894531 C 27.195277 17.865198 27.159627 17.844149 27.128906 17.816406 C 27.052378 17.747227 26.977138 17.677743 26.892578 17.619141 C 26.852985 17.591732 26.808793 17.571803 26.767578 17.546875 C 26.680267 17.493999 26.593984 17.439455 26.5 17.398438 C 26.432592 17.369043 26.359533 17.352938 26.289062 17.330078 C 26.214071 17.305735 26.142555 17.274332 26.064453 17.257812 C 25.995115 17.24315 25.921125 17.242546 25.849609 17.234375 C 25.763916 17.224571 25.680207 17.207031 25.591797 17.207031 L 24.447266 17.207031 L 23.878906 17.207031 L 17.238281 10.566406 C 17.237278 10.565403 17.23538 10.565456 17.234375 10.564453 C 17.082506 10.412721 16.912923 10.282562 16.740234 10.154297 C 16.688427 10.115817 16.645323 10.067462 16.591797 10.03125 C 16.590123 10.030118 16.587613 10.030426 16.585938 10.029297 C 15.888642 9.5588972 15.04968 9.2815137 14.146484 9.28125 L 14.146484 9.2832031 C 12.938239 9.2832031 11.844643 9.776936 11.052734 10.570312 C 10.855202 10.768212 10.676527 10.98243 10.519531 11.214844 C 10.519531 11.214844 10.519531 11.216797 10.519531 11.216797 C 10.36266 11.449221 10.225736 11.697999 10.115234 11.958984 C 10.115234 11.958984 10.115234 11.960938 10.115234 11.960938 C 10.004856 12.22194 9.9195017 12.495676 9.8613281 12.779297 C 9.8613281 12.779297 9.8613281 12.78125 9.8613281 12.78125 C 9.8032776 13.064906 9.7714844 13.357865 9.7714844 13.658203 L 9.7714844 13.660156 C 9.7714844 13.693613 9.7804971 13.724532 9.78125 13.757812 C 9.7873783 14.023857 9.8094178 14.286539 9.8613281 14.539062 C 9.919264 14.820899 10.003758 15.092072 10.113281 15.351562 C 10.208325 15.577215 10.328995 15.787506 10.458984 15.992188 C 10.480049 16.025326 10.493701 16.063172 10.515625 16.095703 C 10.664941 16.317443 10.837131 16.522337 11.023438 16.712891 C 11.03155 16.721182 11.036743 16.732007 11.044922 16.740234 C 11.048505 16.743842 11.051091 16.748358 11.054688 16.751953 L 13.705078 19.402344 L 12.537109 19.402344 C 12.466287 19.402344 12.441606 19.384058 12.382812 19.376953 L 11.949219 18.945312 L 11.931641 18.925781 C 11.887621 18.881781 11.831058 18.847984 11.771484 18.833984 C 11.726194 18.822984 11.680634 18.823984 11.634766 18.833984 C 11.503184 18.868984 11.403395 18.998666 11.404297 19.134766 L 11.404297 21.296875 C 11.404297 21.445253 11.440632 21.584403 11.490234 21.716797 C 11.501951 21.748076 11.511206 21.778528 11.525391 21.808594 C 11.583377 21.931821 11.657454 22.04494 11.751953 22.142578 C 11.756873 22.147669 11.758664 22.155147 11.763672 22.160156 L 11.970703 22.367188 L 11.970703 22.732422 L 11.970703 23.974609 C 11.987037 24.207716 12.02328 24.420891 12.072266 24.621094 C 12.088778 24.688594 12.112913 24.746722 12.132812 24.810547 C 12.170713 24.932133 12.210431 25.051736 12.259766 25.160156 C 12.291637 25.230179 12.328981 25.292813 12.365234 25.357422 C 12.418465 25.452302 12.473284 25.543589 12.535156 25.626953 C 12.575002 25.680697 12.617049 25.730266 12.660156 25.779297 C 12.693183 25.816836 12.721053 25.861686 12.755859 25.896484 L 12.941406 26.082031 C 12.876811 26.558899 12.669368 26.837832 12.324219 27.09375 C 11.911321 27.40005 11.310055 27.637303 10.675781 27.908203 C 10.041508 28.179203 9.3696035 28.506678 8.8515625 29.080078 C 8.3335215 29.653378 7.9997107 30.454781 8 31.613281 L 8 31.826172 L 24.166016 47.992188 z " color="#000" font-family="Sans" font-weight="400" transform="translate(0 1004.362)"/><path fill="#fff" style="line-height:normal;-inkscape-font-specification:Sans;text-indent:0;text-align:start;text-decoration-line:none;text-transform:none;block-progression:tb;marker:none" d="m 6.1464844,1.5683594 c -2.4154058,0 -4.375,1.967 -4.375,4.375 0,2.4002 1.947683,4.3614996 4.3515625,4.3749996 0.00835,1e-4 0.015165,0 0.023437,0 2.2387574,0 2.8786314,0.09294 4.3750001,1.589844 l 0,-5.9648436 c 0,-0.017 1.99e-4,-0.032828 0,-0.048828 C 10.494594,3.5067313 8.5444536,1.5690594 6.1464844,1.5683594 Z M 23.638672,3.15625 c -0.186767,0 -0.371728,0.024781 -0.556641,0.050781 -0.504363,0.9743 -0.621091,0.9243313 -1.623047,0.7070313 -0.121109,0.093 -0.244398,0.1800156 -0.355468,0.2910156 -0.138824,0.1395 -0.253949,0.2930657 -0.365235,0.4472657 0.319697,0.9912999 0.178343,1.0301468 -0.636719,1.5605468 -0.05226,0.3515 -0.05226,0.7070938 0,1.0585938 0.924431,0.4778 0.842116,0.6132 0.636719,1.5625 0.111286,0.1538 0.226411,0.3065125 0.365235,0.4453125 0.110705,0.111 0.232732,0.1979156 0.353515,0.2910156 1.034912,-0.3401 1.06966,-0.1447687 1.623047,0.7070317 0.316586,0.05 0.636941,0.05058 0.955078,0.01758 0.528752,-1.0303003 0.695006,-0.9202659 1.751953,-0.697266 0.132564,-0.1003 0.267913,-0.1956062 0.388672,-0.3164062 0.09327,-0.093 0.16333,-0.1985281 0.244141,-0.2988281 -0.358507,-1.2599 -0.28386,-1.1357 0.765625,-1.8125 0.01615,-0.1415 0.04102,-0.2833813 0.04102,-0.4257813 0,-0.1413 -0.02416,-0.2826281 -0.04102,-0.4238281 -1.12087,-0.6202 -1.02116,-0.6358531 -0.765625,-1.8144531 -0.0808,-0.1003 -0.150984,-0.2057281 -0.244141,-0.2988282 C 26.055046,4.0852313 25.919713,3.990525 25.787109,3.890625 24.674527,4.239425 24.623523,4.1090594 24.033203,3.1933594 23.901904,3.1753594 23.770655,3.15625 23.638672,3.15625 Z M 5.75,3.1582031 l 0.7949219,0 0,0.8457031 c 0.2086578,0.048 0.4048924,0.1299376 0.5722656,0.2734376 L 7.4160156,4.5253906 6.8925781,5.1230469 6.5957031,4.875 C 6.5069291,4.799 6.3606769,4.75 6.2226562,4.75 5.930093,4.75 5.75,4.9165469 5.75,5.1230469 c 0,0.2469 0.1419438,0.421875 0.421875,0.421875 0.3367113,0 0.6348976,0.1246562 0.8457031,0.3476562 0.2103124,0.223 0.3222657,0.5355032 0.3222657,0.8457031 0,0.5111 -0.3438231,0.9179501 -0.7949219,1.09375 l 0,0.8945313 -0.7949219,0 0,-0.84375 C 5.5417559,7.8358125 5.3460463,7.754875 5.1777344,7.609375 L 4.8789062,7.3359375 5.4023438,6.7382812 5.6992188,7.0117188 c 0.088694,0.078 0.2300227,0.125 0.3730468,0.125 0.2938438,0 0.4726563,-0.1918376 0.4726563,-0.3984376 0,-0.134 -0.04154,-0.2377281 -0.099609,-0.2988281 -0.058069,-0.061 -0.1269134,-0.099609 -0.2734375,-0.099609 -0.6852193,0 -1.2167969,-0.5755969 -1.2167969,-1.2167969 0,-0.5111 0.3437436,-0.92495 0.7949219,-1.09375 l 0,-0.8710938 z m 17.894531,2.3847657 a 1.1959183,1.1959183 0 0 1 1.195313,1.1953124 1.1959183,1.1959183 0 0 1 -1.195313,1.1953126 1.1959183,1.1959183 0 0 1 -1.195312,-1.1953126 1.1959183,1.1959183 0 0 1 1.195312,-1.1953124 z m -12.09375,3.1582031 0,0.00195 C 11.366258,8.752125 11.225298,8.9341 11.226562,9.125 l 0,3.033203 c 0,0.5988 0.315945,1.129806 0.796876,1.441406 l 0,0.572266 0,1.740234 c 0.09658,1.3783 0.627232,2.339441 1.367187,2.931641 -0.08674,0.6836 -0.381248,1.080059 -0.871094,1.443359 -0.579025,0.4295 -1.421077,0.762679 -2.310547,1.142579 C 9.3195147,21.809587 8.3749095,22.266212 7.6484375,23.070312 6.9219655,23.874513 6.4546724,25.0003 6.4550781,26.625 l 0,0.298828 0.2480469,0.09961 c 2.2767646,0.9881 3.427144,1.492781 4.001953,1.738281 0.287409,0.1227 0.41699,0.192209 0.498047,0.224609 0.04057,0.016 0.05618,0.01239 0.09961,0.02539 0.01082,0 0.02735,0.02139 0.04883,0.02539 l 0.02539,0 c 0.06523,0.026 0.204712,0.08337 0.472656,0.197266 0.560029,0.2388 1.670654,0.713206 3.925782,1.691406 L 15.951172,31 16.125,30.925781 c 2.294726,-0.9746 3.441987,-1.450206 4.027344,-1.691406 0.280901,-0.1158 0.423029,-0.194956 0.496094,-0.222656 0.01273,-6e-4 0.01481,0 0.02539,0 0.0428,-0.01 0.0824,-0.01939 0.09961,-0.02539 0.03444,-0.011 0.03476,-0.01039 0.07422,-0.02539 0.07907,-0.033 0.240003,-0.100657 0.521485,-0.222657 0.562957,-0.244 1.686041,-0.737943 3.927734,-1.714843 l 0.248047,-0.09961 0,-0.298828 c 0,-1.5861 -0.471819,-2.702569 -1.19336,-3.480469 -0.72154,-0.7777 -1.656926,-1.195206 -2.535156,-1.566406 -0.878231,-0.3711 -1.715999,-0.701478 -2.287109,-1.142578 -0.560594,-0.4331 -0.882846,-0.931372 -0.894531,-1.888672 0.77241,-0.6386 1.308219,-1.537066 1.341796,-2.634766 l 0,-1.740234 0,-0.697266 0,-1.441406 c 1.2e-4,-1.3883 -1.050234,-2.5351561 -2.384765,-2.5351561 l -1.144531,0 -3.628907,0 c -0.272867,0 -0.498692,-0.044609 -0.597656,-0.099609 C 12.121743,9.3434375 12.097656,9.3344 12.097656,9.125 12.100056,8.8585 11.808081,8.6319719 11.550781,8.7011719 Z M 3.7714844,11.121094 c -0.045294,-0.0111 -0.090849,-0.01037 -0.1367188,0.002 -0.131582,0.035 -0.2313706,0.164681 -0.2304687,0.300781 l 0,2.16211 c 0,0.426999 0.2234601,0.807096 0.5664062,1.029296 l 0,0.40625 0,1.242188 c 0.068874,0.9829 0.4469537,1.669497 0.9746094,2.091797 -0.061852,0.4875 -0.2717889,0.768343 -0.6210937,1.027343 -0.4128979,0.306301 -1.0141637,0.543554 -1.6484376,0.814454 -0.6342733,0.271 -1.3061777,0.598475 -1.8242187,1.171875 C 0.33352149,21.942541 -2.8929114e-4,22.743844 0,23.902344 l 0,0.21289 0.17773438,0.07227 C 1.801276,24.892 2.6213585,25.252634 3.03125,25.427734 c 0.2049486,0.087 0.2957141,0.137057 0.3535156,0.160157 0.028929,0.011 0.041295,0.0096 0.072266,0.01758 0.00771,0 0.019841,0.01458 0.035156,0.01758 l 0.017578,0 c 0.046514,0.019 0.1448692,0.06078 0.3359375,0.142578 0.2303271,0.09822 1.0420712,0.448938 1.6152344,0.695313 0.015791,-0.835617 0.1478653,-1.58726 0.3808594,-2.246094 l 0.5371093,-2.947266 c 0.088952,-0.2744 -0.1076447,-0.41564 -0.1210937,-0.43164 -0.1764738,-0.155401 -0.280933,-0.367675 -0.28125,-0.609376 -3.46e-5,-0.458899 0.371162,-0.830078 0.8300781,-0.830078 0.4589162,0 0.8301126,0.371179 0.8300782,0.830078 -5.197e-4,0.226901 -0.091584,0.455376 -0.25,0.609376 -10e-8,0 -0.2059865,0.10024 -0.1171876,0.43164 L 7.390625,21.94727 c 0.7864121,-0.688417 1.6642439,-1.112274 2.4257812,-1.4375 0.2920958,-0.12476 0.5406718,-0.236485 0.8007818,-0.351563 -0.494995,-0.209499 -0.9623225,-0.4145 -1.2929692,-0.669922 -0.3997552,-0.3088 -0.6303392,-0.663103 -0.6386719,-1.345703 0.550799,-0.4554 0.9330881,-1.096106 0.9570312,-1.878906 l 0,-1.242188 0,-0.496093 0,-1.027344 c 8.51e-5,-0.99 -0.7495288,-1.808594 -1.7011719,-1.808594 l -0.8164062,0 -2.5878906,0 c -0.1945794,0 -0.3532581,-0.03131 -0.4238282,-0.07031 -0.07057,-0.039 -0.089844,-0.04531 -0.089844,-0.195313 0.00127,-0.1425 -0.1160723,-0.26943 -0.2519531,-0.302734 z m 24.4570316,0 c -0.135881,0.0333 -0.253227,0.160234 -0.251954,0.302734 0,0.15 -0.01927,0.156313 -0.08984,0.195313 -0.07057,0.039 -0.229248,0.07031 -0.423828,0.07031 l -2.587891,0 -0.816406,0 c -0.951643,0 -1.701257,0.818594 -1.701172,1.808594 l 0,1.027344 0,0.496093 0,1.242188 c 0.02394,0.7828 0.406232,1.423506 0.957031,1.878906 -0.0083,0.6826 -0.238917,1.036903 -0.638672,1.345703 -0.364309,0.281426 -0.888244,0.501748 -1.441406,0.734375 0.302523,0.13706 0.615915,0.275834 0.970703,0.425782 0.736842,0.311395 1.606597,0.702863 2.392578,1.367187 l 0.132813,-0.748047 c 0.0888,-0.3314 -0.117188,-0.43164 -0.117188,-0.43164 -0.158417,-0.154 -0.249481,-0.382475 -0.25,-0.609376 -3.5e-5,-0.458899 0.371162,-0.830078 0.830078,-0.830078 0.458916,0 0.830113,0.371179 0.830079,0.830078 -3.17e-4,0.241701 -0.104777,0.453975 -0.28125,0.609376 -0.01345,0.016 -0.210047,0.15724 -0.121094,0.43164 l 0.552734,3.041016 c 0.221346,0.635742 0.35005,1.356065 0.365234,2.152344 0.573164,-0.246376 1.384908,-0.597092 1.615235,-0.695313 0.191069,-0.0818 0.289427,-0.123578 0.335937,-0.142578 l 0.01758,0 c 0.01531,-0.003 0.02746,-0.01758 0.03516,-0.01758 0.03097,-0.008 0.04333,-0.0066 0.07227,-0.01758 0.0578,-0.0231 0.148567,-0.07316 0.353516,-0.160157 0.409891,-0.1751 1.229974,-0.535734 2.853516,-1.240234 L 32,24.115234 l 0,-0.21289 c 2.9e-4,-1.1585 -0.333521,-1.959803 -0.851562,-2.533203 -0.518042,-0.5734 -1.189945,-0.900875 -1.824219,-1.171875 -0.634273,-0.2709 -1.23554,-0.508153 -1.648438,-0.814454 -0.349305,-0.259 -0.559245,-0.539843 -0.621093,-1.027343 0.527656,-0.4223 0.905739,-1.108897 0.974609,-2.091797 l 0,-1.242188 0,-0.40625 c 0.342946,-0.2222 0.566406,-0.6023 0.566406,-1.029296 l 0,-2.16211 c 9.02e-4,-0.1361 -0.09889,-0.265781 -0.230469,-0.300781 -0.04587,-0.01232 -0.09143,-0.01305 -0.136718,-0.002 z M 16,20.304688 c 0.643558,0 1.166064,0.520462 1.166016,1.164062 -7.29e-4,0.3181 -0.131362,0.637616 -0.353516,0.853516 0,0 -0.28859,0.140768 -0.164062,0.605468 L 17.591797,28.203125 16,28.998047 14.439453,28.193359 15.400391,22.927734 c 0.124742,-0.3848 -0.151062,-0.583468 -0.169922,-0.605468 -0.247477,-0.2179 -0.39604,-0.514616 -0.396485,-0.853516 -4.8e-5,-0.6436 0.522457,-1.164062 1.166016,-1.164062 z" color="#000" font-family="Sans" font-weight="400" overflow="visible" transform="translate(8 1012.078)"/></g></svg>