<svg xmlns="http://www.w3.org/2000/svg" id="Layer_1" width="32" height="32" version="1" viewBox="0 0 32 32"><g id="g4140"><path id="path7" fill="#f37a5d" fill-rule="evenodd" d="M 32,16 C 32,24.821192 24.835821,32 16,32 7.1641791,32 -9.5499999e-8,24.847682 -9.5499999e-8,16 -9.5499999e-8,7.1523179 7.1641791,6.8000001e-8 16,6.8000001e-8 24.835821,6.8000001e-8 32,7.1788079 32,16 l 0,0 z" clip-rule="evenodd"/><path id="path4158" fill="#f35c4b" d="m 17.074219,31.890625 c 0.724117,-0.04904 1.455862,-0.07441 2.15039,-0.216797 1.041512,-0.213524 2.046817,-0.528171 3.003907,-0.933594 0.957089,-0.405422 1.865584,-0.900869 2.716796,-1.476562 0.851213,-0.575693 1.643307,-1.23074 2.367188,-1.955078 0.723881,-0.724338 1.379985,-1.517785 1.955078,-2.369141 0.575093,-0.851355 1.069759,-1.762003 1.47461,-2.71875 0.40485,-0.956747 0.72044,-1.959489 0.933593,-3 0.139735,-0.682117 0.163173,-1.400906 0.212891,-2.111328 L 21.314453,6.5351562 21.3125,6.5332031 C 21.230423,6.451262 21.141171,6.3778023 21.044922,6.3125 c 0,0 -0.002,0 -0.002,0 -0.09625,-0.065189 -0.198735,-0.1218986 -0.306641,-0.1679688 0,0 -0.002,0 -0.002,0 -0.10792,-0.045954 -0.220825,-0.08307 -0.337891,-0.1074218 0,0 -0.002,0 -0.002,0 C 20.276809,6.0127499 20.15568,6 20.03125,6 l -8.113281,0 0,0.025391 c -0.995436,0 -1.816406,0.7938665 -1.816407,1.8125 l 0,0.9453125 0.669922,0.6699219 -0.669922,0 0,13.0937496 0.695313,0.695313 -0.695313,0 0,0.919921 c 0,0.125719 0.01409,0.247649 0.03906,0.367188 0.02487,0.11903 0.06233,0.233634 0.109375,0.34375 0.0052,0.01215 0.01214,0.02313 0.01758,0.03516 0.04429,0.09785 0.09434,0.192958 0.154297,0.28125 0.0039,0.0057 0.0097,0.0099 0.01367,0.01563 0.06254,0.08994 0.1301,0.176336 0.207031,0.253906 0.0019,0.002 0.0039,0.0039 0.0059,0.0059 l 6.425781,6.425781 z"/><path id="path9" fill="#fff" d="m 11.918711,6.0248448 c -0.995436,0 -1.816672,0.795031 -1.816672,1.8136645 l 0,0.9440993 11.746155,0 0,-0.9689441 C 21.848194,6.8198758 21.026959,6 20.031523,6 l -8.112812,0 0,0.024845 z m 3.011197,1.3664595 2.065532,0 0,0.6956521 -2.065532,0 0,-0.6956521 0,0 z m -4.827869,2.0621117 0,13.093167 2.413934,0 0,-2.409937 c 0,-0.173914 0.12443,-0.322982 0.273746,-0.347826 0.02488,0 0.04977,0 0.07465,0 l 1.368726,0 c 0.174202,0 0.348403,0.173912 0.348403,0.347826 l 0,2.409937 0.696806,0 0,-4.47205 c 0,-0.173912 0.12443,-0.32298 0.273745,-0.347825 0.02488,0 0.04977,0 0.07466,0 l 1.393612,0 c 0.174202,0 0.348403,0.173913 0.348403,0.347825 l 0,4.47205 0.696806,0 0,-7.229813 c 0,-0.149068 0.12443,-0.322982 0.273745,-0.347826 0.02488,0 0.04977,0 0.07466,0 l 1.393612,0 c 0.174201,0 0.348402,0.173913 0.348402,0.347826 l 0,7.254658 1.742015,0 0,-13.118012 -11.795928,0 0,0 z m 8.4861,2.26087 0.02488,2.211179 -0.67192,-0.397515 c -1.567813,2.807454 -3.608459,4.223603 -5.574447,5.515528 -0.149315,0.149068 -0.423061,0.124223 -0.547489,-0.04969 -0.12443,-0.173914 -0.02488,-0.447205 0.1742,-0.521739 1.965988,-1.291926 3.882205,-2.608696 5.350474,-5.291926 l -0.622148,-0.372671 1.866444,-1.093167 0,0 z m 0.149316,3.95031 0,6.906832 0.696806,0 0,-6.906832 -0.696806,0 0,0 z m -2.762338,2.757764 0,4.124223 0.696806,0 0,-4.124223 -0.696806,0 0,0 z m -2.762338,2.062112 0,2.062111 0.696806,0 0,-2.062111 -0.696806,0 0,0 z m -3.11074,2.757763 0,0.919256 C 10.102039,25.155279 10.923275,26 11.918711,26 l 8.112812,0 c 0.995436,0 1.816671,-0.844721 1.816671,-1.838509 l 0,-0.919256 -2.015759,0 -1.518041,0 -1.244296,0 -1.518042,0 -1.244296,0 -1.518041,0 -2.68768,0 0,0 z m 5.873078,0.422361 c 0.348403,0 0.622148,0.273292 0.622148,0.621118 0,0.347826 -0.273745,0.621118 -0.622148,0.621118 -0.348403,0 -0.622148,-0.273292 -0.622148,-0.621118 0,-0.347826 0.273745,-0.621118 0.622148,-0.621118 l 0,0 z"/></g></svg>