<svg xmlns="http://www.w3.org/2000/svg" width="25" height="25" viewBox="0 0 25 25"><g fill="#fff" transform="translate(4.99 -1031.862)"><circle cx="7.511" cy="1044.362" r="12.5" fill="#3a6c87"/><path fill="#2f4b6c" fill-rule="evenodd" style="line-height:normal;text-indent:0;text-align:start;text-decoration-line:none;text-decoration-style:solid;text-decoration-color:#000;text-transform:none;block-progression:tb;isolation:auto;mix-blend-mode:normal" d="M 10.882812 24.880859 A 12.5 12.5 0 0 0 11.251953 24.9375 A 12.5 12.5 0 0 0 12.5 25 A 12.5 12.5 0 0 0 13.384766 24.96875 A 12.5 12.5 0 0 0 14.625 24.818359 A 12.5 12.5 0 0 0 15.84375 24.544922 A 12.5 12.5 0 0 0 17.029297 24.150391 A 12.5 12.5 0 0 0 18.169922 23.640625 A 12.5 12.5 0 0 0 19.253906 23.017578 A 12.5 12.5 0 0 0 20.269531 22.291016 A 12.5 12.5 0 0 0 21.208984 21.466797 A 12.5 12.5 0 0 0 22.060547 20.552734 A 12.5 12.5 0 0 0 22.816406 19.558594 A 12.5 12.5 0 0 0 23.470703 18.492188 A 12.5 12.5 0 0 0 24.013672 17.367188 A 12.5 12.5 0 0 0 24.441406 16.193359 A 12.5 12.5 0 0 0 24.75 14.982422 A 12.5 12.5 0 0 0 24.9375 13.748047 A 12.5 12.5 0 0 0 25 12.5 A 12.5 12.5 0 0 0 24.96875 11.615234 A 12.5 12.5 0 0 0 24.818359 10.375 A 12.5 12.5 0 0 0 24.640625 9.5859375 L 20.736328 5.6796875 C 20.688962 5.626425 20.635502 5.5785396 20.585938 5.5273438 C 20.550214 5.4904217 20.515349 5.4537834 20.478516 5.4179688 C 20.284741 5.2295917 20.077524 5.057653 19.855469 4.9023438 C 19.807963 4.8690875 19.759626 4.8382696 19.710938 4.8066406 C 19.484913 4.6599095 19.247111 4.5291683 18.998047 4.4199219 C 18.95058 4.3990915 18.901733 4.3826637 18.853516 4.3632812 C 18.591938 4.2581358 18.322078 4.1692966 18.041016 4.109375 C 17.88327 4.0757354 17.723346 4.0476062 17.560547 4.0292969 C 17.556587 4.0288515 17.552791 4.0277798 17.548828 4.0273438 C 17.548828 4.0273438 17.546875 4.0273438 17.546875 4.0273438 C 17.366903 4.0076108 17.18511 3.9960937 17 3.9960938 L 17 3.9980469 C 15.62171 3.9980469 14.372444 4.560609 13.466797 5.4667969 C 13.240829 5.6928998 13.035137 5.9394359 12.855469 6.2050781 C 12.855469 6.2050781 12.855469 6.2070312 12.855469 6.2070312 C 12.675927 6.4726826 12.521044 6.7562614 12.394531 7.0546875 C 12.394531 7.0546875 12.394531 7.0566406 12.394531 7.0566406 C 12.268141 7.3550861 12.168191 7.6677215 12.101562 7.9921875 C 12.101562 7.9921875 12.101562 7.9941406 12.101562 7.9941406 C 12.068375 8.1560787 12.042437 8.3211233 12.025391 8.4882812 C 12.025391 8.4882812 12.025391 8.4902344 12.025391 8.4902344 C 12.008408 8.6574148 12 8.8264863 12 8.9980469 L 6 8.9980469 L 6 9 L 6 19.996094 L 6 19.998047 L 10.882812 24.880859 z " color="#000" font-family="sans-serif" font-weight="400" transform="translate(-4.99 1031.862)" white-space="normal"/><path fill-rule="evenodd" style="line-height:normal;text-indent:0;text-align:start;text-decoration-line:none;text-decoration-style:solid;text-decoration-color:#000;text-transform:none;block-progression:tb;isolation:auto;mix-blend-mode:normal" d="M 11,0 C 8.2445,0 6,2.2445 6,5 c 0,6.582e-4 -3e-7,0.00129 0,0.00195 l -6,0 L 0,16 l 11,0 0,-6 c 2.7555,0 5,-2.2445 5,-5 0,-2.7555 -2.2445,-5 -5,-5 z m 0,1 c 2.21506,0 4,1.785 4,4 0,2.2151 -1.78494,4 -4,4 -0.263508,0 -0.520478,-0.029886 -0.769531,-0.078125 -0.0084,-0.00157 -0.01701,-0.0023 -0.02539,-0.00391 l -0.0039,0 C 10.182099,8.914135 10.163529,8.908395 10.144539,8.904293 9.9313839,8.858108 9.7261936,8.791418 9.5273518,8.7128867 c -0.027733,-0.011089 -0.0565,-0.019663 -0.083984,-0.03125 l -0.00195,0 C 9.4112169,8.6688973 9.3832206,8.6521253 9.3535156,8.6386719 9.1818946,8.561218 9.0169587,8.4729677 8.859375,8.3730469 8.8205615,8.3486505 8.7802099,8.3267292 8.7421875,8.3007812 8.7245201,8.2885614 8.7088169,8.2741546 8.6914062,8.2617188 8.536192,8.1518957 8.3896306,8.0307394 8.2519531,7.9003906 8.2144255,7.8650641 8.1748759,7.8318807 8.1386719,7.7949219 7.9929914,7.6458711 7.8632232,7.4829087 7.7421875,7.3125 7.7140284,7.2729146 7.6849266,7.2340213 7.6582031,7.1933594 7.5443662,7.0199335 7.4455431,6.8354739 7.359375,6.6445312 7.3370603,6.594437 7.3133475,6.5450525 7.2929688,6.4941406 7.2155431,6.3015861 7.1544745,6.1007367 7.1074219,5.8945312 7.0961784,5.844465 7.0835883,5.7946455 7.0742188,5.7441406 7.0288217,5.502215 7,5.2554454 7,5 7,2.785 8.78494,1 11,1 Z M 1,6 6.1015625,6 c 0.00606,0.029707 0.0188,0.056422 0.025391,0.085937 0.016797,0.08368 0.032,0.1676564 0.054687,0.25 l 0.00195,0 c 0.0448,0.161 0.097503,0.3189094 0.1582031,0.4746094 0.00933,0.023962 0.021595,0.046524 0.03125,0.070312 0.020641,0.050517 0.044174,0.098755 0.066406,0.1484375 0.034943,0.07882 0.066241,0.159264 0.1054688,0.2363281 0.0752,0.1487 0.1564537,0.2930938 0.2460937,0.4335938 l 0.00195,0 c 0.014655,0.022771 0.031844,0.043862 0.046875,0.066406 0.016116,0.024151 0.034259,0.046459 0.050781,0.070312 0.06295,0.090966 0.1245708,0.1829731 0.1933594,0.2695313 0.10336,0.1302 0.2142781,0.2557999 0.3300781,0.375 0.012235,0.012561 0.026689,0.022741 0.039063,0.035156 0.017261,0.017414 0.035222,0.033621 0.052734,0.050781 0.089537,0.087072 0.1796576,0.1735736 0.2753906,0.2539063 0.12659,0.1072 0.2579212,0.2086344 0.3945312,0.3027344 l 0.00195,0 c 0.00388,0.00265 0.00783,0.00517 0.011719,0.00781 0.022701,0.015501 0.047347,0.027833 0.070312,0.042969 0.1123211,0.073398 0.2259663,0.1447006 0.34375,0.2089844 0.1259953,0.06893 0.2554337,0.1300235 0.3867188,0.1875 0.047881,0.021163 0.095882,0.040859 0.1445312,0.060547 0.1272462,0.051405 0.2556723,0.099992 0.3867188,0.140625 0.1244545,0.038795 0.2516892,0.06741 0.3789062,0.095703 0.034159,0.00773 0.065193,0.022271 0.099609,0.029297 l 0,5.0976568 -9,0 L 1,6 Z" color="#000" font-family="sans-serif" font-weight="400" overflow="visible" transform="translate(1.01 1035.862)" white-space="normal"/></g></svg>