<svg xmlns="http://www.w3.org/2000/svg" width="25" height="25" viewBox="0 0 25 25"><g fill="#fff" transform="translate(4.99 -1031.862)"><circle cx="7.511" cy="1044.362" r="12.5" fill="#ef4c45" fill-rule="evenodd"/><path fill="#df2209" fill-rule="evenodd" style="line-height:normal;text-indent:0;text-align:start;text-decoration-line:none;text-decoration-style:solid;text-decoration-color:#000;text-transform:none;block-progression:tb;isolation:auto;mix-blend-mode:normal" d="M 10.941406 24.890625 A 12.5 12.5 0 0 0 11.251953 24.9375 A 12.5 12.5 0 0 0 12.5 25 A 12.5 12.5 0 0 0 13.384766 24.96875 A 12.5 12.5 0 0 0 14.625 24.818359 A 12.5 12.5 0 0 0 15.84375 24.544922 A 12.5 12.5 0 0 0 17.029297 24.150391 A 12.5 12.5 0 0 0 18.169922 23.640625 A 12.5 12.5 0 0 0 19.253906 23.017578 A 12.5 12.5 0 0 0 20.269531 22.291016 A 12.5 12.5 0 0 0 21.208984 21.466797 A 12.5 12.5 0 0 0 22.060547 20.552734 A 12.5 12.5 0 0 0 22.816406 19.558594 A 12.5 12.5 0 0 0 23.470703 18.492188 A 12.5 12.5 0 0 0 24.013672 17.367188 A 12.5 12.5 0 0 0 24.025391 17.333984 L 23.513672 16.822266 L 24.0625 17.232422 A 12.5 12.5 0 0 0 24.441406 16.193359 A 12.5 12.5 0 0 0 24.75 14.982422 A 12.5 12.5 0 0 0 24.9375 13.748047 A 12.5 12.5 0 0 0 25 12.5 A 12.5 12.5 0 0 0 24.96875 11.615234 A 12.5 12.5 0 0 0 24.818359 10.375 A 12.5 12.5 0 0 0 24.650391 9.6289062 L 20.576172 5.5546875 L 20.509766 5.6171875 L 19.742188 4.8496094 L 19.566406 4.7207031 L 19.525391 4.6933594 L 19.482422 4.671875 L 18.773438 4.3417969 L 18.501953 4.9277344 L 17.617188 4.0429688 L 16.714844 4.0097656 L 16.666016 4.0097656 L 16.664062 4.0097656 L 16.664062 4.0078125 L 16.613281 4.0175781 L 16.519531 4.0332031 L 16.675781 4.9980469 L 16.675781 5.0117188 L 16.679688 5.015625 L 16.681641 5.0234375 L 16.683594 5.0253906 L 21.134766 9.4765625 L 20.960938 9.4375 L 20.958984 9.4375 L 20.958984 9.4394531 L 20.898438 9.7070312 L 15.449219 4.2578125 L 14.845703 4.4824219 L 14.800781 4.4980469 L 14.759766 4.5234375 L 14.455078 4.7089844 L 14.974609 5.5625 L 21 11.587891 L 20.351562 11.128906 L 20.005859 11.615234 L 19.919922 11.697266 L 13.582031 5.359375 L 13.318359 5.6015625 L 13.28125 5.6308594 L 13.253906 5.6699219 L 12.867188 6.1855469 L 19.070312 12.388672 L 18.814453 12.554688 L 18.390625 12.724609 L 13.248047 7.5820312 L 13.240234 7.5820312 L 13.230469 7.5820312 L 12.347656 7.15625 L 12.304688 7.2363281 L 12.283203 7.28125 L 12.271484 7.328125 L 12.048828 8.2050781 L 12.839844 8.9960938 L 12.583984 8.9960938 L 6.0507812 8.9960938 L 6.0507812 8.9980469 L 6.0507812 9 L 6.0507812 19.998047 L 6.0507812 20 L 10.941406 24.890625 z " color="#000" font-family="sans-serif" font-weight="400" transform="translate(-4.99 1031.862)" white-space="normal"/><path fill-rule="evenodd" style="line-height:normal;text-indent:0;text-align:start;text-decoration-line:none;text-decoration-style:solid;text-decoration-color:#000;text-transform:none;block-progression:tb;isolation:auto;mix-blend-mode:normal" d="m 10.648438,0.0078125 -0.05078,0.0078125 -0.09375,0.015625 0.15625,0.96484375 0,0.0136718 0.002,0 0.002,0.00977 0.03906,-0.00977 0.859375,0.03125 0.03711,-0.99999908 -0.902343,-0.03320312 -0.04883,0 z m -1.2148442,0.25 -0.6035157,0.22460938 -0.044922,0.015625 L 8.7441406,0.5234375 8.4394531,0.70898438 8.9589844,1.5625 9.2167969,1.4042969 9.78125,1.1953125 9.4335938,0.2578125 Z M 12.757812,0.34179688 12.335938,1.25 12.998047,1.5566406 13.136719,1.6582031 13.726562,0.84960938 13.550781,0.72070312 13.509766,0.69335938 13.466797,0.671875 12.757812,0.34179688 Z M 7.5664062,1.359375 7.3027344,1.6015625 7.265625,1.6308594 7.2382812,1.6699219 6.8515625,2.1855469 7.6523438,2.7851562 8.0058594,2.3105469 8.2382812,2.0996094 7.5664062,1.359375 Z m 6.9941408,0.1953125 -0.732422,0.6796875 0.308594,0.3320312 0.240234,0.3828126 0.847656,-0.53125 -0.265625,-0.421875 -0.02539,-0.041016 -0.03125,-0.035156 -0.341797,-0.3652344 z M 6.3320312,3.15625 6.2890625,3.2363281 6.2675781,3.28125 6.2558594,3.328125 6.0332031,4.2050781 7.0019531,4.4511719 7.2128906,3.625 l 0.019531,-0.042969 -0.00781,0 -0.00977,0 L 6.3320312,3.15625 Z m 9.3574218,0.2480469 -0.933594,0.3632812 0.06055,0.1523438 0.128906,0.7265625 0.984376,-0.1738282 -0.134766,-0.7675781 -0.0098,-0.048828 -0.01758,-0.046875 -0.07813,-0.2050781 z M 0.03515625,5 l 0,11 10.99999975,0 0,-6.0195312 0.328125,0.00391 0.05078,0 0.04883,-0.00977 0.0957,-0.017578 L 11.375,8.984375 11.373,8.974605 11.32417,8.984375 10.59956,8.974605 10.58003,8.972655 C 8.7924781,8.8074563 7.2291163,7.2411781 7.0664062,5.4550781 L 7.0234375,5 6.5683594,5 0.03515625,5 Z m 14.90820275,0.4394531 -0.1875,0.8417969 -0.01953,0.041016 0.0078,0 0.0098,0 0.892578,0.4023438 0.04102,-0.087891 0.01953,-0.044922 0.01172,-0.050781 0.199219,-0.8808594 0.01172,-0.048828 0.002,-0.050781 -0.5,-0.011719 -0.0039,0 -0.484375,-0.109375 z M 1.0351562,6 6.1972656,6 c 0.37865,1.9253 1.9123006,3.4589438 3.8378904,3.8398438 l 0,5.1601562 -8.9999998,0 0,-9 z m 13.3007818,1.1289062 -0.345704,0.4863282 -0.220703,0.2128906 0.689453,0.7226562 0.257813,-0.2460937 0.03516,-0.033203 0.02734,-0.039063 0.373047,-0.5253907 -0.816406,-0.578125 z M 13.060547,8.3847656 12.798828,8.5546875 12.25,8.7753906 12.621094,9.703125 13.21875,9.4628906 13.26367,9.4433596 13.30273,9.4199226 13.603512,9.2265632 13.060543,8.3847663 Z" color="#000" font-family="sans-serif" font-weight="400" overflow="visible" transform="translate(1.027 1035.862)" white-space="normal"/></g></svg>