<svg xmlns="http://www.w3.org/2000/svg" width="25" height="25" viewBox="0 0 25 25"><g transform="translate(0 -1027.362)"><circle cx="12.5" cy="1039.862" r="12.5" fill="#424242" fill-rule="evenodd"/><path fill="#1f212a" style="line-height:normal;text-indent:0;text-align:start;text-decoration-line:none;text-decoration-style:solid;text-decoration-color:#000;text-transform:none;block-progression:tb;isolation:auto;mix-blend-mode:normal" d="M 11.970703 24.972656 A 12.5 12.5 0 0 0 12.5 25 A 12.5 12.5 0 0 0 13.384766 24.96875 A 12.5 12.5 0 0 0 14.625 24.818359 A 12.5 12.5 0 0 0 15.84375 24.544922 A 12.5 12.5 0 0 0 17.029297 24.150391 A 12.5 12.5 0 0 0 18.169922 23.640625 A 12.5 12.5 0 0 0 19.253906 23.017578 A 12.5 12.5 0 0 0 20.269531 22.291016 A 12.5 12.5 0 0 0 21.208984 21.466797 A 12.5 12.5 0 0 0 22.060547 20.552734 A 12.5 12.5 0 0 0 22.816406 19.558594 A 12.5 12.5 0 0 0 23.470703 18.492188 A 12.5 12.5 0 0 0 24.013672 17.367188 A 12.5 12.5 0 0 0 24.441406 16.193359 A 12.5 12.5 0 0 0 24.75 14.982422 A 12.5 12.5 0 0 0 24.9375 13.748047 A 12.5 12.5 0 0 0 25 12.5 A 12.5 12.5 0 0 0 24.982422 11.980469 L 20 6.9980469 L 5 6.9980469 L 5 7.4980469 L 5 18.001953 L 11.970703 24.972656 z " color="#000" font-family="sans-serif" font-weight="400" transform="translate(0 1027.362)" white-space="normal"/><path fill="#fff" d="m 0.99609375,3.0078125 0,0.5 0,10.5019535 15.00000025,0 0,-11.0019535 -15.00000025,0 z m 1.00000005,1 7,0 0,0.9941406 -7,0 0,-0.9941406 z m 8,0 1.0000002,0 0,0.9941406 -1.0000002,0 0,-0.9941406 z m 2.0000002,0 1,0 0,0.9941406 -1,0 0,-0.9941406 z m 2,0 1,0 0,0.9941406 -1,0 0,-0.9941406 z m -12.0000002,1.9941406 13.0000002,0 0,7.0078129 -13.0000002,0 0,-7.0078129 z m 1,0.9921875 0,0.5 0,4.5078124 6,0 0,-5.0078124 -6,0 z m 7,0.00781 0,1 4.0000002,0 0,-1 -4.0000002,0 z m -6,0.9921875 4,0 0,3.0078129 -4,0 0,-3.0078129 z m 6,1.0078125 0,1.0000004 4.0000002,0 0,-1.0000004 -4.0000002,0 z m 0,2.0000004 0,1 4.0000002,0 0,-1 -4.0000002,0 z" color="#000" font-family="sans-serif" font-weight="400" overflow="visible" transform="translate(4.004 1031.353)" white-space="normal" style="line-height:normal;text-indent:0;text-align:start;text-decoration-line:none;text-decoration-style:solid;text-decoration-color:#000;text-transform:none;block-progression:tb;isolation:auto;mix-blend-mode:normal"/></g></svg>