<svg xmlns="http://www.w3.org/2000/svg" width="25" height="25" viewBox="0 0 25 25"><g fill="#fff" transform="translate(4.674 -1032.052)"><circle cx="657.054" cy="437.094" r="15.268" fill="#9257a2" fill-rule="evenodd" transform="matrix(.81871 0 0 .81871 -530.112 686.697)"/><path fill="#6c4676" style="line-height:normal;text-indent:0;text-align:start;text-decoration-line:none;text-decoration-style:solid;text-decoration-color:#000;text-transform:none;block-progression:tb;isolation:auto;mix-blend-mode:normal" d="M 13.939453 24.908203 A 12.5 12.5 0 0 0 14.982422 24.75 A 12.5 12.5 0 0 0 16.193359 24.441406 A 12.5 12.5 0 0 0 17.367188 24.013672 A 12.5 12.5 0 0 0 18.492188 23.470703 A 12.5 12.5 0 0 0 19.558594 22.816406 A 12.5 12.5 0 0 0 20.552734 22.060547 A 12.5 12.5 0 0 0 21.466797 21.208984 A 12.5 12.5 0 0 0 22.291016 20.269531 A 12.5 12.5 0 0 0 23.017578 19.253906 A 12.5 12.5 0 0 0 23.640625 18.169922 A 12.5 12.5 0 0 0 24.150391 17.029297 A 12.5 12.5 0 0 0 24.544922 15.84375 A 12.5 12.5 0 0 0 24.818359 14.625 A 12.5 12.5 0 0 0 24.96875 13.384766 A 12.5 12.5 0 0 0 25 12.5 A 12.5 12.5 0 0 0 24.972656 11.957031 L 20.009766 6.9941406 L 20.005859 6.9941406 L 18.011719 5 L 17.011719 5 L 17.011719 6.9960938 L 11.003906 6.9960938 L 9.0078125 5 L 8.0078125 5 L 8.0078125 6.9941406 L 6.0332031 6.9941406 L 6.0332031 7.9941406 L 8.0117188 9.9726562 L 8.0117188 15.994141 L 6.0332031 15.994141 L 6.0332031 16.994141 L 8.0078125 18.96875 L 8.0078125 18.976562 L 13.939453 24.908203 z " color="#000" font-family="sans-serif" font-weight="400" transform="translate(-4.674 1032.052)" white-space="normal"/><path d="m 2.9863281,1.0117188 0,1.9941406 -1.9746093,0 0,1 1.9785156,0 0,7.9999996 -1.9785156,0 0,1 1.9746093,0 0,1.982422 1,0 0,-1.980469 8.0039059,0 0,1.980469 1,0 0,-1.982422 1.998047,0 0,-1 -1.998047,0 0,-7.9999996 1.998047,0 0,-1 -1.998047,0 0,-1.9941406 -1,0 0,1.9960937 -8.0039059,0 0,-1.9960937 -1,0 z m 1.0039063,2.9960937 7.9999996,0 0,7.9999995 -7.9999996,0 0,-7.9999995 z" color="#000" font-family="sans-serif" font-weight="400" overflow="visible" transform="translate(.348 1036.04)" white-space="normal" style="line-height:normal;text-indent:0;text-align:start;text-decoration-line:none;text-decoration-style:solid;text-decoration-color:#000;text-transform:none;block-progression:tb;isolation:auto;mix-blend-mode:normal"/></g></svg>