<svg xmlns="http://www.w3.org/2000/svg" width="25" height="25" viewBox="0 0 25 25"><g fill="#fff" transform="translate(4.417 -1032.375)"><circle cx="8.083" cy="1044.875" r="12.5" fill="#424242" fill-rule="evenodd"/><path fill="#1f212a" style="line-height:normal;text-indent:0;text-align:start;text-decoration-line:none;text-decoration-style:solid;text-decoration-color:#000;text-transform:none;block-progression:tb;isolation:auto;mix-blend-mode:normal" d="M 12.642578 24.994141 A 12.5 12.5 0 0 0 13.384766 24.96875 A 12.5 12.5 0 0 0 14.625 24.818359 A 12.5 12.5 0 0 0 15.84375 24.544922 A 12.5 12.5 0 0 0 17.029297 24.150391 A 12.5 12.5 0 0 0 18.169922 23.640625 A 12.5 12.5 0 0 0 19.253906 23.017578 A 12.5 12.5 0 0 0 20.269531 22.291016 A 12.5 12.5 0 0 0 21.208984 21.466797 A 12.5 12.5 0 0 0 22.060547 20.552734 A 12.5 12.5 0 0 0 22.816406 19.558594 A 12.5 12.5 0 0 0 23.470703 18.492188 A 12.5 12.5 0 0 0 24.013672 17.367188 A 12.5 12.5 0 0 0 24.441406 16.193359 A 12.5 12.5 0 0 0 24.501953 15.955078 L 21.222656 12.675781 C 21.179198 12.632325 21.126798 12.598492 21.080078 12.558594 C 21.030339 12.516077 20.982973 12.471786 20.929688 12.433594 C 20.858167 12.382337 20.780701 12.339711 20.703125 12.296875 C 20.647187 12.265968 20.594072 12.231283 20.535156 12.205078 C 20.442627 12.163942 20.343557 12.136101 20.244141 12.107422 C 20.192676 12.09257 20.144994 12.071846 20.091797 12.060547 C 19.935185 12.027274 19.771869 12.007812 19.601562 12.007812 C 19.501001 12.007812 19.403892 12.029994 19.306641 12.052734 L 14.134766 6.8828125 L 14.125 6.8730469 C 13.98888 6.7367934 13.841693 6.6141073 13.681641 6.5058594 C 13.202733 6.1819437 12.625871 5.9921875 12.005859 5.9921875 C 10.352508 5.9921875 9.0058594 7.3387875 9.0058594 8.9921875 L 9.0058594 10.992188 C 9.0058594 11.215242 9.0367288 11.430289 9.0839844 11.638672 C 9.0996261 11.707592 9.1260806 11.770905 9.1464844 11.837891 C 9.186969 11.970985 9.2290197 12.102066 9.2871094 12.226562 C 9.324749 12.307229 9.3695815 12.382371 9.4140625 12.458984 C 9.4741602 12.56256 9.5377018 12.662389 9.609375 12.757812 C 9.6624894 12.828561 9.7183781 12.89508 9.7773438 12.960938 C 9.8156032 13.00369 9.8461443 13.053178 9.8867188 13.09375 L 10.125 13.332031 C 7.988296 14.083345 6.4245986 16.073644 6.3515625 18.476562 C 6.3472776 18.545122 6.3595662 18.612755 6.3847656 18.675781 C 6.3983792 18.709728 6.4248143 18.737012 6.4453125 18.767578 C 6.4634197 18.79455 6.4754336 18.824236 6.4980469 18.847656 C 6.5006829 18.850403 6.5012147 18.85473 6.5039062 18.857422 L 12.642578 24.994141 z " color="#000" font-family="sans-serif" font-weight="400" transform="translate(-4.417 1032.375)" white-space="normal"/><path d="m 6.0039062,1.0078125 c -1.653351,0 -3,1.3466 -3,3 l 0,2 c 0,0.94668 0.4508562,1.7816692 1.1386719,2.3320313 -2.1469303,0.7459058 -3.71970523,2.7419062 -3.79296872,5.1523442 -0.017,0.271999 0.22745999,0.53175 0.5,0.53125 l 10.24999962,0 c -0.443749,-0.3107 -0.885911,-0.6278 -1.3124996,-1 l -8.3125,0 c 0.331026,-2.3192 2.289213,-4.0729005 4.6875,-4.0000005 0.560312,0.017 1.077876,0.14455 1.5625,0.34375 0.02478,-0.3483 0.08639,-0.6854 0.21875,-1 C 7.9166331,8.3572566 7.8881678,8.3532578 7.8613281,8.34375 8.551883,7.7934877 9.0039062,6.956688 9.0039062,6.0078125 l 0,-2 c 0,-1.6534 -1.3466489,-3 -3,-3 z m 0,1 c 1.1166491,0 2,0.8833 2,2 l 0,2 c 0,1.1166 -0.8833509,2 -2,2 -1.116649,0 -2,-0.8834 -2,-2 l 0,-2 c 0,-1.1167 0.883351,-2 2,-2 z m 4.6425778,5.015625 c -1.4108756,0 -2.4101559,1.1941344 -2.4101559,2.5527344 0,0.8776001 0.5513233,1.6526871 1.2382813,2.3671871 0.6869586,0.7146 1.5523946,1.369685 2.3496096,1.896485 l 0.27539,0.18164 0.275391,-0.18164 c 0.799622,-0.5284 1.658533,-1.191203 2.341797,-1.908203 0.683264,-0.7169 1.231749,-1.484157 1.246094,-2.3476566 0.0225,-1.3549 -0.952348,-2.5605469 -2.363282,-2.5605469 -0.535596,0 -1.020303,0.3524812 -1.496093,0.7382813 -0.461157,-0.3825 -0.921785,-0.7382813 -1.457032,-0.7382813 z m 0,1 c 0.312371,0 0.627583,0.1553 1.101563,0.625 l 0.351562,0.3496094 0.351563,-0.3496094 c 0.46351,-0.4594 0.836064,-0.625 1.148437,-0.625 0.8751,0 1.378406,0.6321688 1.363282,1.5429687 -0.0066,0.3974001 -0.363735,1.0408808 -0.96875,1.6757818 -0.528719,0.554699 -1.229426,1.078715 -1.896485,1.541015 C 11.428619,12.321303 10.724796,11.8008 10.195312,11.25 9.5887545,10.619 9.2363281,9.9842719 9.2363281,9.5761719 c 0,-0.9075 0.5349963,-1.5527344 1.4101559,-1.5527344 z" color="#000" font-family="sans-serif" font-weight="400" overflow="visible" transform="translate(1.586 1037.36)" white-space="normal" style="line-height:normal;text-indent:0;text-align:start;text-decoration-line:none;text-decoration-style:solid;text-decoration-color:#000;text-transform:none;block-progression:tb;isolation:auto;mix-blend-mode:normal"/></g></svg>