<svg xmlns="http://www.w3.org/2000/svg" width="25" height="25" viewBox="0 0 25 25"><g transform="translate(0 -1027.362)"><g transform="translate(-24.545 1011.453)"><circle cx="37.045" cy="28.409" r="12.5" fill="#50b748" fill-rule="evenodd"/></g><path fill="#10a711" style="line-height:normal;text-indent:0;text-align:start;text-decoration-line:none;text-decoration-style:solid;text-decoration-color:#000;text-transform:none;block-progression:tb;isolation:auto;mix-blend-mode:normal" d="M 11.980469 24.982422 A 12.5 12.5 0 0 0 12.5 25 A 12.5 12.5 0 0 0 13.748047 24.9375 A 12.5 12.5 0 0 0 14.982422 24.75 A 12.5 12.5 0 0 0 16.193359 24.441406 A 12.5 12.5 0 0 0 17.367188 24.013672 A 12.5 12.5 0 0 0 18.492188 23.470703 A 12.5 12.5 0 0 0 19.558594 22.816406 A 12.5 12.5 0 0 0 20.552734 22.060547 A 12.5 12.5 0 0 0 21.466797 21.208984 A 12.5 12.5 0 0 0 22.291016 20.269531 A 12.5 12.5 0 0 0 23.017578 19.253906 A 12.5 12.5 0 0 0 23.640625 18.169922 A 12.5 12.5 0 0 0 24.150391 17.029297 A 12.5 12.5 0 0 0 24.544922 15.84375 A 12.5 12.5 0 0 0 24.818359 14.625 A 12.5 12.5 0 0 0 24.96875 13.384766 A 12.5 12.5 0 0 0 25 12.5 A 12.5 12.5 0 0 0 24.972656 11.970703 L 20 6.9980469 L 5 6.9980469 L 5 7.4980469 L 5 18.001953 L 11.980469 24.982422 z " color="#000" font-family="sans-serif" font-weight="400" transform="translate(0 1027.362)" white-space="normal"/><path fill="#fff" d="m -0.00390625,2.0039062 0,0.5 0,10.5019528 15.00000025,0 0,-11.0019528 -15.00000025,0 z m 1,1 13.00000025,0 0,0.9980469 -13.00000025,0 0,-0.9980469 z m 0,1.9980469 13.00000025,0 0,7.0039059 -13.00000025,0 0,-7.0039059 z m 1.00000005,0.9921875 0,0.5 0,4.5097654 6,0 0,-5.0097654 -6,0 z m 7,0.00977 0,1 4.0000002,0 0,-1 -4.0000002,0 z m -6,0.9902344 4,0 0,3.009765 -4,0 0,-3.009765 z m 6,1.0097656 0,1 4.0000002,0 0,-1 -4.0000002,0 z m 0,1.9999994 0,1 4.0000002,0 0,-1 -4.0000002,0 z" color="#000" font-family="sans-serif" font-weight="400" overflow="visible" transform="translate(5.004 1032.357)" white-space="normal" style="line-height:normal;text-indent:0;text-align:start;text-decoration-line:none;text-decoration-style:solid;text-decoration-color:#000;text-transform:none;block-progression:tb;isolation:auto;mix-blend-mode:normal"/></g></svg>